<svg width="32" height="32" viewBox="0 0 32 32" fill="none" xmlns="http://www.w3.org/2000/svg">
  <!-- Background Circle -->
  <circle cx="16" cy="16" r="16" fill="#00B26F"/>
  
  <!-- Large Leaf Shape -->
  <path d="M 16 6 Q 22 8 23 14 Q 23.5 16 22.5 19 Q 21 22 18 23.5 Q 16 24.5 14 23.5 Q 11 22 9.5 19 Q 8.5 16 9 14 Q 10 8 16 6 Z" fill="#ffffff" opacity="0.95"/>
  
  <!-- City Skyline (simplified) -->
  <g opacity="0.8">
    <rect x="11" y="18" width="2" height="4" fill="#064e3b" rx="0.5"/>
    <rect x="13.5" y="16" width="2" height="6" fill="#065f46" rx="0.5"/>
    <rect x="16" y="15" width="2" height="7" fill="#047857" rx="0.5"/>
    <rect x="18.5" y="16.5" width="2" height="5.5" fill="#065f46" rx="0.5"/>
    <rect x="21" y="18" width="1.5" height="4" fill="#064e3b" rx="0.5"/>
  </g>
  
  <!-- Leaf vein -->
  <path d="M 16 7 L 16 23" stroke="#00B26F" stroke-width="0.5" opacity="0.3"/>
</svg>
